<svg xmlns="http://www.w3.org/2000/svg" viewBox="0 0 64 64"><defs><style>.cls-1{fill:#fff;stroke:#7f8a98;}.cls-1,.cls-10,.cls-11,.cls-2,.cls-3,.cls-4,.cls-5,.cls-6,.cls-7,.cls-8,.cls-9{stroke-linecap:round;stroke-miterlimit:10;}.cls-1,.cls-10,.cls-2,.cls-4,.cls-6,.cls-8{stroke-width:6px;}.cls-10,.cls-11,.cls-2,.cls-3,.cls-4,.cls-5,.cls-6,.cls-7,.cls-8,.cls-9{fill:#42f900;}.cls-2,.cls-3{stroke:#00a9ff;}.cls-11,.cls-3,.cls-5,.cls-7,.cls-9{stroke-width:3px;}.cls-4,.cls-5{stroke:#1bff47;}.cls-6,.cls-7{stroke:#ff4d89;}.cls-8,.cls-9{stroke:#ff8600;}.cls-10,.cls-11{stroke:#ffd200;}</style></defs><g id="レイヤー_1" data-name="レイヤー 1"><path class="cls-1" d="M13.44,51.71l6.82-7.32"/><path class="cls-2" d="M24.57,39.73,45,17.78"/><path class="cls-3" d="M23.6,22.49l-6.08-5.76"/><path class="cls-3" d="M46.38,45.14,40.3,39.37"/><path class="cls-3" d="M18.76,30.26H10.39"/><path class="cls-3" d="M45.24,30.38h8.37"/><path class="cls-3" d="M31.16,53.12l.07-8.37"/><path class="cls-3" d="M30.4,19.25V10.88"/></g><g id="レイヤー_5" data-name="レイヤー 5"><path class="cls-1" d="M13.44,51.71l6.82-7.32"/><path class="cls-4" d="M24.57,39.73,45,17.78"/><path class="cls-5" d="M23.6,22.49l-6.08-5.76"/><path class="cls-5" d="M46.38,45.14,40.3,39.37"/><path class="cls-5" d="M18.76,30.26H10.39"/><path class="cls-5" d="M45.24,30.38h8.37"/><path class="cls-5" d="M31.16,53.12l.07-8.37"/><path class="cls-5" d="M30.4,19.25V10.88"/></g><g id="レイヤー_4" data-name="レイヤー 4"><path class="cls-1" d="M13.44,51.71l6.82-7.32"/><path class="cls-6" d="M24.57,39.73,45,17.78"/><path class="cls-7" d="M23.6,22.49l-6.08-5.76"/><path class="cls-7" d="M46.38,45.14,40.3,39.37"/><path class="cls-7" d="M18.76,30.26H10.39"/><path class="cls-7" d="M45.24,30.38h8.37"/><path class="cls-7" d="M31.16,53.12l.07-8.37"/><path class="cls-7" d="M30.4,19.25V10.88"/></g><g id="レイヤー_3" data-name="レイヤー 3"><path class="cls-1" d="M13.44,51.71l6.82-7.32"/><path class="cls-8" d="M24.57,39.73,45,17.78"/><path class="cls-9" d="M23.6,22.49l-6.08-5.76"/><path class="cls-9" d="M46.38,45.14,40.3,39.37"/><path class="cls-9" d="M18.76,30.26H10.39"/><path class="cls-9" d="M45.24,30.38h8.37"/><path class="cls-9" d="M31.16,53.12l.07-8.37"/><path class="cls-9" d="M30.4,19.25V10.88"/></g><g id="レイヤー_2" data-name="レイヤー 2"><path class="cls-1" d="M13.44,51.71l6.82-7.32"/><path class="cls-10" d="M24.57,39.73,45,17.78"/><path class="cls-11" d="M23.6,22.49l-6.08-5.76"/><path class="cls-11" d="M46.38,45.14,40.3,39.37"/><path class="cls-11" d="M18.76,30.26H10.39"/><path class="cls-11" d="M45.24,30.38h8.37"/><path class="cls-11" d="M31.16,53.12l.07-8.37"/><path class="cls-11" d="M30.4,19.25V10.88"/></g></svg>